<svg style="display: none">

    <!-- Transhealth Logo -->
    <svg id="transhealth-logo" viewBox="0 0 500.747 111.569">
        <polygon points="135.146 77.549 135.146 93.055 137.648 93.055 137.648 81.751 146.442 93.055 147.95 93.055 147.95 77.526 145.448 77.526 145.448 87.974 137.21 77.549 135.146 77.549" />
        <polygon points="137.209 77.548 135.146 77.548 135.146 93.055 137.648 93.055 137.648 81.751 146.442 93.055 147.95 93.055 147.95 77.526 145.448 77.526 145.448 87.973 137.209 77.548" />
        <path d="M166.929,79.424a7.791,7.791,0,0,0-5.676-2.191c-5.485,0-7.976,4.233-7.976,8.18,0,3.989,2.464,8,7.976,8,5.445,0,7.922-4.029,7.963-8.031A8.34,8.34,0,0,0,166.929,79.424Zm-5.676,11.747c-3.961,0-5.444-2.94-5.526-5.7a6.2,6.2,0,0,1,1.62-4.478,5.291,5.291,0,0,1,3.906-1.538,5.176,5.176,0,0,1,3.866,1.5,6.241,6.241,0,0,1,1.647,4.492C166.712,88.081,165.241,91.171,161.253,91.171Z" />
        <path d="M183.3,87.469l.449-.082a4.513,4.513,0,0,0,3.838-4.791c0-2.491-1.7-5.023-5.5-5.05-1.28,0-2.546,0-3.812-.014-1.184,0-2.368,0-3.552-.013v15.53h2.491V87.7h3.293l4.669,5.349h3.076ZM177.22,85.5V79.846h4.873a2.83,2.83,0,1,1,0,5.649Z" />
        <path d="M183.3,87.469l.449-.082a4.513,4.513,0,0,0,3.838-4.791c0-2.491-1.7-5.023-5.5-5.05-1.28,0-2.546,0-3.812-.014-1.184,0-2.368,0-3.552-.013v15.53h2.491V87.7h3.293l4.669,5.349h3.076ZM177.22,85.5V79.846h4.873a2.83,2.83,0,1,1,0,5.649Z" />
        <polygon points="197.271 93.055 199.774 93.055 199.774 79.776 204.856 79.776 204.856 77.549 192.189 77.549 192.189 79.776 197.271 79.776 197.271 93.055" />
        <polygon points="197.271 79.776 197.271 93.055 199.773 93.055 199.773 79.776 204.856 79.776 204.856 77.549 192.189 77.549 192.189 79.776 197.271 79.776" />
        <polygon points="212.477 77.572 209.975 77.572 209.975 93.077 212.477 93.077 212.477 86.598 220.873 86.598 220.873 93.077 223.352 93.077 223.352 77.572 220.873 77.572 220.873 84.326 212.477 84.326 212.477 77.572" />
        <polygon points="212.477 84.326 212.477 77.572 209.975 77.572 209.975 93.078 212.477 93.078 212.477 86.598 220.873 86.598 220.873 93.078 223.352 93.078 223.352 77.572 220.873 77.572 220.873 84.326 212.477 84.326" />
        <path d="M237.859,77.546h-2.954l-6.956,15.5h2.709l1.375-3.021h8.711l1.348,3.021h2.722Zm-4.846,10.195,3.375-7.731,3.362,7.731Z" />
        <polygon points="252.457 77.572 249.37 77.572 249.37 93.077 251.872 93.077 251.872 80.888 257.37 88.407 257.703 88.407 263.313 80.927 263.313 93.077 265.814 93.077 265.814 77.572 262.75 77.572 257.603 84.645 252.457 77.572" />
        <polygon points="257.603 84.645 252.457 77.572 249.37 77.572 249.37 93.077 251.872 93.077 251.872 80.888 257.369 88.407 257.703 88.407 263.313 80.927 263.313 93.077 265.814 93.077 265.814 77.572 262.75 77.572 257.603 84.645" />
        <path d="M279.21,77.532h-3.77c-1.171.014-2.355.014-3.526.014v15.5h2.5V88.34h4.791a5.563,5.563,0,0,0,4.22-1.688,5.408,5.408,0,0,0,1.4-3.716A5.278,5.278,0,0,0,279.21,77.532Zm2.368,7.582a3.083,3.083,0,0,1-2.368.98h-4.791V79.887h4.791a3.036,3.036,0,0,1,3.158,3.1A3.146,3.146,0,0,1,281.578,85.114Z" />
        <polygon points="293.824 93.055 296.326 93.055 296.326 79.776 301.408 79.776 301.408 77.549 288.741 77.549 288.741 79.776 293.824 79.776 293.824 93.055" />
        <polygon points="293.824 79.776 293.824 93.055 296.326 93.055 296.326 79.776 301.408 79.776 301.408 77.549 288.741 77.549 288.741 79.776 293.824 79.776" />
        <path d="M319.228,79.424a7.814,7.814,0,0,0-5.676-2.191c-5.486,0-7.99,4.233-7.99,8.18,0,3.989,2.477,8,7.99,8,5.431,0,7.908-4.029,7.949-8.031A8.389,8.389,0,0,0,319.228,79.424Zm-5.676,11.747c-3.975,0-5.458-2.94-5.526-5.7a6.137,6.137,0,0,1,1.619-4.478,5.273,5.273,0,0,1,3.907-1.538,5.217,5.217,0,0,1,3.865,1.5,6.288,6.288,0,0,1,1.634,4.492C319.01,88.081,317.54,91.171,313.552,91.171Z" />
        <polygon points="327.107 77.549 327.107 93.055 329.608 93.055 329.608 81.751 338.402 93.055 339.91 93.055 339.91 77.526 337.409 77.526 337.409 87.974 329.17 77.549 327.107 77.549" />
        <polygon points="329.17 77.548 327.107 77.548 327.107 93.055 329.608 93.055 329.608 81.751 338.402 93.055 339.91 93.055 339.91 77.526 337.409 77.526 337.409 87.973 329.17 77.548" />
        <path d="M325.575,26.7c8.575,0,14.46,5.74,14.46,15.259V61.285h-5.523V42.247c0-6.829-4-10.463-9.954-10.463A14.179,14.179,0,0,0,313.513,37.6V61.285h-5.522V16.371h5.522V31.348a17.1,17.1,0,0,1,12.062-4.65Zm160.711,0a17.1,17.1,0,0,0-12.062,4.65V16.371H468.7V61.285h5.522V37.6a14.179,14.179,0,0,1,11.045-5.813c5.958,0,9.955,3.634,9.955,10.463V61.285h5.523V41.957c0-9.519-5.887-15.259-14.461-15.259Zm14.46,15.258c0-9.518-5.885-15.258-14.46-15.258a17.1,17.1,0,0,0-12.062,4.65V16.37H468.7V61.285h5.522V37.6a14.176,14.176,0,0,1,11.045-5.813c5.958,0,9.954,3.633,9.954,10.463V61.285h5.523Zm-49.21,6.831V32.292h11.24V27.569h-11.24V16.37h-5.522v11.2h-7.566v4.723h7.566V48.787c0,8.792,4,13.37,12.279,13.37a20.994,20.994,0,0,0,5.1-.651V56.233A16.53,16.53,0,0,1,458.8,57c-4.8,0-7.266-2.4-7.266-8.21Zm11.853,7.446A16.492,16.492,0,0,1,458.8,57c-4.8,0-7.267-2.4-7.267-8.21V32.292h11.239V27.569H451.536V16.37h-5.522v11.2h-7.566v4.723h7.566V48.787c0,8.792,4,13.37,12.28,13.37a21.037,21.037,0,0,0,5.1-.65V56.233ZM184.107,26.706a14.843,14.843,0,0,0-9.244,3.129V27.61H163.532V61.323h11.331v-21.2c1.945-2.155,4.1-3.2,6.116-3.2a6.69,6.69,0,0,1,3.338.8,22.81,22.81,0,0,1,5.935-9.817,15.5,15.5,0,0,0-6.145-1.2ZM151.451,51.869c-3.267,0-5.282-1.6-5.282-5.074V37.271h10.647V27.61H146.169V16.37H134.907V27.61h-6.6v9.661h6.6v9.871c0,9.106,5.561,15.084,14.737,15.084a24.951,24.951,0,0,0,7.786-1.2V50.479a16.333,16.333,0,0,1-5.978,1.39ZM290.77,40.055c-5.151-1.349-5.826-1.717-5.826-2.821s.981-1.534,2.453-1.534a26.385,26.385,0,0,1,10.365,2.76l3.924-8.954a37.631,37.631,0,0,0-14.228-2.7c-8.769,0-14.351,3.557-14.351,11.407,0,6.746,4.907,9.383,11.469,10.916,5.458,1.289,6.01,1.718,6.01,2.76,0,1.411-1.717,1.9-3.863,1.9-2.944,0-7.543-.92-10.3-2.882l-3.557,8.77A37.947,37.947,0,0,0,287.4,62.317c9.322,0,15.332-3.434,15.332-11.775,0-5.949-4.538-8.586-11.959-10.487ZM214.243,27.606v1.742A16.05,16.05,0,0,0,205,26.707a16.246,16.246,0,0,0-10.645,4,17.985,17.985,0,0,0-6.1,13.72,18.88,18.88,0,0,0,.64,4.86,17.741,17.741,0,0,0,2.491,5.5,17.028,17.028,0,0,0,7.037,6A15.809,15.809,0,0,0,205,62.22a16.074,16.074,0,0,0,9.242-2.709v1.81h11.27V27.606Zm0,22.037a8.725,8.725,0,0,1-6.942,2.994,7.918,7.918,0,0,1-7.99-8.208,7.907,7.907,0,0,1,7.99-8.194,8.752,8.752,0,0,1,6.942,2.981Zm38.812-22.937a14.846,14.846,0,0,0-9.245,3.129V27.61H232.479V61.323H243.81v-21.2c1.946-2.155,4.1-3.2,6.116-3.2,3.754,0,6.188,2.155,6.188,6.951V61.323h11.26V42.068c0-9.592-5.838-15.362-14.319-15.362Zm110.41-.012c-10.181,0-17.3,7.785-17.3,17.735s7.2,17.723,17.586,17.723c7.268,0,13.08-3.485,15.19-9.3h-6.179c-1.457,2.831-4.724,4.356-9.011,4.356-7.051,0-11.339-4.86-11.992-11.107h28.2C381.051,35.051,374.286,26.694,363.465,26.694ZM351.841,42.17c.789-5.948,4.941-10.671,11.624-10.671,6.4,0,10.685,3.988,10.971,10.671Zm63.239-14.6v3.5a17.048,17.048,0,0,0-11.842-4.369,17.5,17.5,0,0,0-17.369,17.735,17.443,17.443,0,0,0,17.369,17.723A17.04,17.04,0,0,0,415.08,57.8V61.28h5.526V27.565Zm0,23.765a12.722,12.722,0,0,1-11.107,5.744,12.645,12.645,0,0,1,0-25.29,12.724,12.724,0,0,1,11.107,5.744Zm12.832,9.955h5.523V16.37h-5.523Zm0,0h5.523V16.37h-5.523Z" />
        <path d="M94.011,29.1a2.434,2.434,0,1,0-1.89,4.487,24.162,24.162,0,0,1,14.775,22.3c0,12.592-10.87,24.1-21.98,24.1,0,0-.041-52.524-.041-53.322C84.875,13.255,71.058,0,55.845,0A29.021,29.021,0,0,0,29.063,17.761a2.434,2.434,0,1,0,4.486,1.89,24.17,24.17,0,0,1,22.3-14.783c12.536,0,24.089,10.312,24.089,21.793h-53.3C12.471,26.661,0,40.519,0,55.732A29.036,29.036,0,0,0,17.752,82.515a2.461,2.461,0,0,0,.95.186,2.433,2.433,0,0,0,.949-4.673,24.164,24.164,0,0,1-14.783-22.3c0-12.528,10.273-24.081,21.769-24.081V84.94c0,12.4,13.638,26.629,29.062,26.629A29.021,29.021,0,0,0,82.482,93.817,2.431,2.431,0,1,0,78,91.926,24.171,24.171,0,0,1,55.7,106.7c-12.519,0-24.073-10.8-24.073-21.761l53.239-.014c13.419,0,26.9-13.762,26.9-29.04A29.029,29.029,0,0,0,94.011,29.1ZM79.926,31.529c0,9.771-11.319,21.582-21.265,21.582,0-4.884,3.067-10.531,7.05-14.466A2.433,2.433,0,1,0,62.3,35.18a29.013,29.013,0,0,0-6.386,9.388A29.221,29.221,0,0,0,45.152,31.529Zm-48.421,34.9V31.651c9.684,0,21.622,11.38,21.622,21.468-4.016,0-10.572-3.059-14.515-7.059a2.435,2.435,0,0,0-3.472,3.416,28.9,28.9,0,0,0,9.16,6.288A29.167,29.167,0,0,0,31.505,66.425Zm.121,13.647c0-9.189,11.655-21.63,21.485-21.63,0,4.432-3.051,10.58-7.051,14.523a2.433,2.433,0,1,0,3.416,3.464,28.8,28.8,0,0,0,6.377-9.387A29.255,29.255,0,0,0,66.6,80.072Zm48.422-.129c-9.348,0-21.412-11.513-21.412-21.453,4.271,0,10.418,3.084,14.3,7.027A2.433,2.433,0,0,0,76.405,62.1a28.731,28.731,0,0,0-9.16-6.288,29.267,29.267,0,0,0,12.8-10.653Z" />
    </svg>

    <!-- MOBILE NAV CLOSE -->
    <symbol id="mobile-close" viewBox="0 0 29.604 29.604">
        <defs>
            <style>
                .close-a{fill:none;stroke:#000;stroke-width:3px;}
            </style>
        </defs>
        <g transform="translate(1.061 1.061)">
            <g transform="translate(-5.259 -5.259)">
                <line class="close-a" x2="27.483" y2="27.483" transform="translate(5.259 5.259)"/>
                <line class="close-a" y1="27.483" x2="27.483" transform="translate(5.259 5.259)"/>
            </g>
        </g>
    </symbol>

    <!-- TO TOP ARROW -->
    <symbol id="totop" viewBox="0 0 16 16">
        <defs>
            <style>.totop-a{fill:#000;}.totop-d{fill:none;}.totop-b{stroke:#000;opacity:0;}.totop-c{stroke:none;}</style>
        </defs>

        <path class="totop-a" d="M8,0,6.545,1.455l5.506,5.506H0V9.039H12.052L6.545,14.545,8,16l8-8Z" transform="translate(0 16) rotate(-90)"/>
        <g class="totop-b" transform="translate(7 7)">
            <circle class="totop-c" cx="1" cy="1" r="1"/>
            <circle class="totop-d" cx="1" cy="1" r="0.5"/>
        </g>
    </symbol>

    <!-- SOCIAL MEDIA ICONS - TWITTER -->
    <symbol id="twitter-icon" viewBox="0 0 16 16">
        <defs><style>.twitter-d{fill:#000;}</style></defs>
        <path class="twitter-d" d="M43.067,14.978A9.25,9.25,0,0,0,52.4,5.644V5.2A7.225,7.225,0,0,0,54,3.511a7.379,7.379,0,0,1-1.867.533,3.458,3.458,0,0,0,1.422-1.778,8.153,8.153,0,0,1-2.044.8A3.175,3.175,0,0,0,49.111,2a3.34,3.34,0,0,0-3.289,3.289A1.733,1.733,0,0,0,45.911,6a9.19,9.19,0,0,1-6.756-3.467,3.4,3.4,0,0,0-.444,1.689,3.532,3.532,0,0,0,1.422,2.756,3,3,0,0,1-1.511-.444h0a3.249,3.249,0,0,0,2.667,3.2,2.74,2.74,0,0,1-.889.089,1.513,1.513,0,0,1-.622-.089,3.367,3.367,0,0,0,3.111,2.311A6.711,6.711,0,0,1,38.8,13.467a2.461,2.461,0,0,1-.8-.089,8.39,8.39,0,0,0,5.067,1.6" transform="translate(-38 -0.001)">
        </path>
    </symbol>

    <!-- SOCIAL MEDIA ICONS - FACEBOOK -->
    <symbol id="fb-icon" viewBox="0 0 12 24">
        <defs><style>.fb-a{fill:#000;}</style></defs>
        <path class="fb-a" d="M9,8H6v4H9V24h5V12h3.642L18,8H14V6.333C14,5.378,14.192,5,15.115,5H18V0H14.192C10.6,0,9,1.583,9,4.615Z" transform="translate(-6)"/>
    </symbol>

    <!-- RIGHT ARROW (FAQS) -->
    <svg id="right-arrow" viewBox="0 0 10.86 16.8" style="enable-background:new 0 0 10.86 16.8;" xml:space="preserve">
        <path d="M10.6,7.77L9.05,6.21c0,0-0.01,0-0.01-0.01L3.11,0.26c-0.35-0.35-0.92-0.35-1.28,0L0.28,1.81c-0.35,0.35-0.35,0.92,0,1.28
        l5.3,5.31l-5.31,5.3c-0.35,0.35-0.35,0.92,0,1.28l1.55,1.55c0.35,0.35,0.92,0.35,1.28,0l5.94-5.93c0,0,0.01,0,0.01-0.01l1.55-1.55
        c0.18-0.18,0.26-0.41,0.26-0.64C10.86,8.18,10.78,7.95,10.6,7.77z"/>
    </svg>


</svg>