<svg style="display: none">

    <!-- MOBILE NAV CLOSE -->
    <symbol id="mobile-close" viewBox="0 0 29.604 29.604">
        <defs>
            <style>
                .close-a{fill:none;stroke:#000;stroke-width:3px;}
            </style>
        </defs>
        <g transform="translate(1.061 1.061)">
            <g transform="translate(-5.259 -5.259)">
                <line class="close-a" x2="27.483" y2="27.483" transform="translate(5.259 5.259)"/>
                <line class="close-a" y1="27.483" x2="27.483" transform="translate(5.259 5.259)"/>
            </g>
        </g>
    </symbol>

    <!-- TO TOP ARROW -->
    <symbol id="totop" viewBox="0 0 16 16">
        <defs>
            <style>.totop-a{fill:#000;}.totop-d{fill:none;}.totop-b{stroke:#000;opacity:0;}.totop-c{stroke:none;}</style>
        </defs>

        <path class="totop-a" d="M8,0,6.545,1.455l5.506,5.506H0V9.039H12.052L6.545,14.545,8,16l8-8Z" transform="translate(0 16) rotate(-90)"/>
        <g class="totop-b" transform="translate(7 7)">
            <circle class="totop-c" cx="1" cy="1" r="1"/>
            <circle class="totop-d" cx="1" cy="1" r="0.5"/>
        </g>
    </symbol>

    <!-- SOCIAL MEDIA ICONS - TWITTER -->
    <symbol id="twitter-icon" viewBox="0 0 16 16">
        <defs><style>.twitter-d{fill:#000;}</style></defs>
        <path class="twitter-d" d="M43.067,14.978A9.25,9.25,0,0,0,52.4,5.644V5.2A7.225,7.225,0,0,0,54,3.511a7.379,7.379,0,0,1-1.867.533,3.458,3.458,0,0,0,1.422-1.778,8.153,8.153,0,0,1-2.044.8A3.175,3.175,0,0,0,49.111,2a3.34,3.34,0,0,0-3.289,3.289A1.733,1.733,0,0,0,45.911,6a9.19,9.19,0,0,1-6.756-3.467,3.4,3.4,0,0,0-.444,1.689,3.532,3.532,0,0,0,1.422,2.756,3,3,0,0,1-1.511-.444h0a3.249,3.249,0,0,0,2.667,3.2,2.74,2.74,0,0,1-.889.089,1.513,1.513,0,0,1-.622-.089,3.367,3.367,0,0,0,3.111,2.311A6.711,6.711,0,0,1,38.8,13.467a2.461,2.461,0,0,1-.8-.089,8.39,8.39,0,0,0,5.067,1.6" transform="translate(-38 -0.001)">
        </path>
    </symbol>

    <!-- SOCIAL MEDIA ICONS - FACEBOOK -->
    <symbol id="fb-icon" viewBox="0 0 12 24">
        <defs><style>.fb-a{fill:#000;}</style></defs>
        <path class="fb-a" d="M9,8H6v4H9V24h5V12h3.642L18,8H14V6.333C14,5.378,14.192,5,15.115,5H18V0H14.192C10.6,0,9,1.583,9,4.615Z" transform="translate(-6)"/>
    </symbol>

    <!-- RIGHT ARROW (FAQS) -->
    <svg id="right-arrow" viewBox="0 0 10.86 16.8" style="enable-background:new 0 0 10.86 16.8;" xml:space="preserve">
        <path d="M10.6,7.77L9.05,6.21c0,0-0.01,0-0.01-0.01L3.11,0.26c-0.35-0.35-0.92-0.35-1.28,0L0.28,1.81c-0.35,0.35-0.35,0.92,0,1.28
        l5.3,5.31l-5.31,5.3c-0.35,0.35-0.35,0.92,0,1.28l1.55,1.55c0.35,0.35,0.92,0.35,1.28,0l5.94-5.93c0,0,0.01,0,0.01-0.01l1.55-1.55
        c0.18-0.18,0.26-0.41,0.26-0.64C10.86,8.18,10.78,7.95,10.6,7.77z"/>
    </svg>


</svg>