<svg xmlns="http://www.w3.org/2000/svg" xmlns:xlink="http://www.w3.org/1999/xlink" width="227.149" height="46.992" viewBox="0 0 227.149 46.992"><defs><style>.a{fill:#fff;}.b{clip-path:url(#a);}</style><clipPath id="a"><rect class="a" width="227.149" height="46.992"/></clipPath></defs><g class="b"><path class="a" d="M279.659,6.3A10.428,10.428,0,0,0,272.3,9.135V0h-3.368V27.394H272.3V12.947A8.646,8.646,0,0,1,279.039,9.4c3.634,0,6.071,2.216,6.071,6.381V27.394h3.368V15.606c0-5.805-3.59-9.306-8.819-9.306" transform="translate(-159.345 -0.001)"/><path class="a" d="M288.477,27.393h-3.368V15.782c0-4.166-2.438-6.381-6.072-6.381a8.645,8.645,0,0,0-6.736,3.545V27.393h-3.368V0H272.3V9.135A10.428,10.428,0,0,1,279.658,6.3c5.23,0,8.819,3.5,8.819,9.306Z" transform="translate(-159.345 0)"/><path class="a" d="M520.192,6.3a10.427,10.427,0,0,0-7.356,2.836V0h-3.368V27.394h3.368V12.947A8.646,8.646,0,0,1,519.572,9.4c3.634,0,6.071,2.216,6.071,6.381V27.394h3.369V15.606c0-5.805-3.59-9.306-8.82-9.306" transform="translate(-301.862 -0.001)"/><path class="a" d="M529.01,27.393h-3.368V15.782c0-4.166-2.437-6.381-6.071-6.381a8.644,8.644,0,0,0-6.735,3.545V27.393h-3.368V0h3.368V9.135A10.426,10.426,0,0,1,520.191,6.3c5.23,0,8.819,3.5,8.819,9.306Z" transform="translate(-301.862 0)"/><path class="a" d="M10.242,91.545V101h1.526V94.108L17.131,101h.92V91.531H16.525V97.9L11.5,91.545Z" transform="translate(-6.068 -54.233)"/><path class="a" d="M16.525,97.9V91.53h1.526V101h-.92l-5.363-6.894V101H10.242V91.544H11.5Z" transform="translate(-6.068 -54.232)"/><path class="a" d="M37.376,96.078a4.622,4.622,0,0,0,4.868,4.882,4.661,4.661,0,0,0,4.854-4.9A5.1,5.1,0,0,0,45.7,92.426a4.942,4.942,0,0,0-8.328,3.652M45.6,96.1a3.365,3.365,0,1,1-6.726.015,3.777,3.777,0,0,1,.989-2.735,3.232,3.232,0,0,1,2.381-.932,3.174,3.174,0,0,1,2.359.914,3.807,3.807,0,0,1,1,2.738" transform="translate(-22.145 -53.968)"/><path class="a" d="M74.984,97.541a2.753,2.753,0,0,0,2.344-2.916,3.064,3.064,0,0,0-3.361-3.081q-1.161,0-2.324-.007-1.083,0-2.165-.007V101H71V97.734h2L75.855,101h1.879l-3.021-3.4ZM71,96.389V92.944h2.965a1.726,1.726,0,1,1,0,3.445Z" transform="translate(-41.165 -54.232)"/><path class="a" d="M74.714,97.6l.27-.055a2.753,2.753,0,0,0,2.344-2.916,3.064,3.064,0,0,0-3.361-3.081q-1.161,0-2.324-.007-1.083,0-2.165-.007V101H71V97.734h2L75.855,101h1.879ZM71,96.389V92.944h2.965a1.726,1.726,0,1,1,0,3.445Z" transform="translate(-41.165 -54.232)"/><path class="a" d="M98.717,101.022h1.526v-8.1h3.1V91.565H95.617v1.358h3.1Z" transform="translate(-56.654 -54.253)"/><path class="a" d="M95.617,92.924V91.565h7.725v1.358h-3.1v8.1H98.716v-8.1Z" transform="translate(-56.654 -54.253)"/><path class="a" d="M123.762,91.6h-1.526v9.457h1.526V97.1h5.121v3.951h1.512V91.6h-1.512v4.119h-5.121Z" transform="translate(-72.426 -54.273)"/><path class="a" d="M128.883,95.718V91.6h1.512v9.457h-1.512V97.1h-5.121v3.952h-1.526V91.6h1.526v4.119Z" transform="translate(-72.426 -54.273)"/><path class="a" d="M153.379,91.565l-4.242,9.457h1.65l.837-1.843h5.315l.824,1.843h1.663l-4.242-9.457Zm-1.154,6.213,2.057-4.716,2.057,4.716Z" transform="translate(-88.364 -54.253)"/><path class="a" d="M183.081,91.6H181.2v9.457h1.526V93.622l3.353,4.586h.2l3.421-4.562v7.41h1.526V91.6h-1.869l-3.139,4.314Z" transform="translate(-107.361 -54.273)"/><path class="a" d="M189.359,91.6h1.869v9.457H189.7v-7.41l-3.421,4.562h-.2l-3.353-4.586v7.434H181.2V91.6h1.883l3.139,4.314Z" transform="translate(-107.361 -54.273)"/><path class="a" d="M217.091,91.538q-1.073,0-2.146.007V101h1.526V98.125h2.923a3.392,3.392,0,0,0,2.574-1.027,3.321,3.321,0,0,0,.854-2.266,3.221,3.221,0,0,0-3.428-3.3q-1.152,0-2.3.007m4.226,3.329a1.913,1.913,0,0,1-.482,1.295,1.882,1.882,0,0,1-1.441.592h-2.923v-3.78h2.923a1.847,1.847,0,0,1,1.923,1.893" transform="translate(-127.356 -54.233)"/><path class="a" d="M243.224,101.022h1.526v-8.1h3.1V91.565h-7.725v1.358h3.1Z" transform="translate(-142.275 -54.253)"/><path class="a" d="M240.125,92.924V91.565h7.725v1.358h-3.1v8.1h-1.526v-8.1Z" transform="translate(-142.275 -54.253)"/><path class="a" d="M265.306,96.078a4.861,4.861,0,1,0,9.722-.016,5.1,5.1,0,0,0-1.394-3.636,4.943,4.943,0,0,0-8.328,3.652m8.224.017a3.365,3.365,0,1,1-6.726.015,3.777,3.777,0,0,1,.989-2.735,3.232,3.232,0,0,1,2.381-.932,3.174,3.174,0,0,1,2.359.914,3.807,3.807,0,0,1,1,2.738" transform="translate(-157.195 -53.968)"/><path class="a" d="M297.545,91.545V101h1.526V94.108L304.434,101h.92V91.531h-1.526V97.9L298.8,91.545Z" transform="translate(-176.297 -54.233)"/><path class="a" d="M303.828,97.9V91.53h1.526V101h-.92l-5.363-6.894V101h-1.526V91.544H298.8Z" transform="translate(-176.297 -54.232)"/><path class="a" d="M472.169,19.77V9.711h6.854V6.83h-6.854V0H468.8V6.83h-4.614V9.711H468.8V19.77c0,5.362,2.438,8.154,7.489,8.154a12.8,12.8,0,0,0,3.108-.4V24.312a10.076,10.076,0,0,1-2.8.466c-2.925,0-4.432-1.462-4.432-5.008" transform="translate(-275.033 0)"/><path class="a" d="M479.4,24.312v3.216a12.816,12.816,0,0,1-3.108.4c-5.052,0-7.489-2.792-7.489-8.154V9.711h-4.614V6.83H468.8V0h3.368V6.83h6.854V9.711h-6.854V19.77c0,3.545,1.507,5.008,4.432,5.008a10.057,10.057,0,0,0,2.8-.466" transform="translate(-275.033 0)"/><path class="a" d="M65.275,15.47a9.054,9.054,0,0,0-5.638,1.908V16.021H52.726V36.582h6.911V23.652a5.161,5.161,0,0,1,3.73-1.95,4.079,4.079,0,0,1,2.036.489,13.912,13.912,0,0,1,3.62-5.987,9.456,9.456,0,0,0-3.748-.733" transform="translate(-31.24 -9.166)"/><path class="a" d="M14.118,21.651c-1.993,0-3.222-.975-3.222-3.095V12.747h6.493V6.855H10.9V0H4.028V6.855H0v5.892H4.028v6.02c0,5.553,3.392,9.2,8.988,9.2a15.219,15.219,0,0,0,4.749-.73V20.8a9.957,9.957,0,0,1-3.646.848" transform="translate(0 0)"/><path class="a" d="M227.281,23.7c-3.142-.823-3.553-1.047-3.553-1.72s.6-.935,1.5-.935a16.086,16.086,0,0,1,6.321,1.683l2.394-5.461a22.958,22.958,0,0,0-8.678-1.645c-5.348,0-8.753,2.17-8.753,6.957,0,4.114,2.993,5.722,6.995,6.658,3.329.786,3.665,1.048,3.665,1.683,0,.861-1.047,1.16-2.356,1.16a12.217,12.217,0,0,1-6.284-1.758l-2.169,5.349a23.146,23.146,0,0,0,8.865,1.608c5.685,0,9.351-2.095,9.351-7.181,0-3.629-2.768-5.237-7.294-6.4" transform="translate(-128.194 -9.256)"/><path class="a" d="M105.579,17.081a10.211,10.211,0,0,0-12.131.829,10.964,10.964,0,0,0-3.724,8.37,11.53,11.53,0,0,0,.392,2.962A11.039,11.039,0,0,0,91.635,32.6a10.4,10.4,0,0,0,4.294,3.662,9.694,9.694,0,0,0,4.012.873,9.848,9.848,0,0,0,5.638-1.654v1.1h6.868V16.021h-6.868Zm0,12.379a5.343,5.343,0,0,1-4.239,1.823,4.828,4.828,0,0,1-4.875-5,4.828,4.828,0,0,1,4.875-5,5.342,5.342,0,0,1,4.239,1.824Z" transform="translate(-53.162 -9.166)"/><path class="a" d="M168.467,15.47a9.054,9.054,0,0,0-5.638,1.908V16.021h-6.911V36.582h6.911V23.652a5.161,5.161,0,0,1,3.73-1.95c2.289,0,3.773,1.314,3.773,4.239V36.582H177.2V24.839c0-5.85-3.561-9.369-8.733-9.369" transform="translate(-92.382 -9.166)"/><path class="a" d="M336.623,15.457c-6.2,0-10.547,4.742-10.547,10.813A10.456,10.456,0,0,0,336.8,37.084c4.432,0,7.977-2.128,9.262-5.673H342.3c-.887,1.728-2.881,2.659-5.5,2.659-4.3,0-6.913-2.969-7.312-6.78h17.195c.665-6.735-3.457-11.832-10.06-11.832m-7.09,9.44c.487-3.634,3.013-6.515,7.09-6.515,3.9,0,6.515,2.438,6.692,6.515Z" transform="translate(-193.202 -9.158)"/><path class="a" d="M385.5,26.27a10.641,10.641,0,0,0,10.591,10.813,10.411,10.411,0,0,0,7.224-2.659v2.127h3.368V15.988h-3.368v2.128a10.41,10.41,0,0,0-7.224-2.659A10.669,10.669,0,0,0,385.5,26.27m17.815-4.21v8.42a7.76,7.76,0,0,1-6.78,3.5,7.711,7.711,0,0,1,0-15.422,7.759,7.759,0,0,1,6.78,3.5" transform="translate(-228.411 -9.158)"/><rect class="a" width="3.368" height="27.393" transform="translate(182.728)"/><rect class="a" width="3.368" height="27.393" transform="translate(182.728)"/></g></svg>