<svg version="1.1" id="Layer_1" xmlns="http://www.w3.org/2000/svg" xmlns:xlink="http://www.w3.org/1999/xlink" x="0px" y="0px"
	 viewBox="0 0 20.8 24.1" style="enable-background:new 0 0 20.8 24.1;" xml:space="preserve">
<style type="text/css">
	.st0{fill:#8EB1C7;}
</style>
<g>
	<path class="st0" d="M19.4,0H1.5C0.7,0,0,0.7,0,1.5v18.3h0l0,2.9c0,0.8,0.7,1.5,1.5,1.5h0h19.4v-4.3V1.5C20.8,0.7,20.2,0,19.4,0z
		 M0.9,1.5c0-0.3,0.2-0.5,0.5-0.5h0.9v18.8H0.9V1.5z M1.5,23.1c-0.3,0-0.5-0.2-0.5-0.5v-0.2h5.4v-0.9H0.9v-0.8h18.9v1.2h-5.4v0.9
		h5.4v0.3H1.5z M3.3,19.7V0.9h16c0.3,0,0.5,0.2,0.5,0.5v18.3H3.3z"/>
	<rect x="8.1" y="21.4" class="st0" width="3.6" height="0.9"/>
</g>
</svg>
