<svg xmlns="http://www.w3.org/2000/svg" width="19.558" height="24.084" viewBox="0 0 19.558 24.084"><g id="Layer_2" data-name="Layer 2"><g id="Layer_1-2" data-name="Layer 1"><path d="M18.284,4.119h-.911V3.457A1.274,1.274,0,0,0,16.1,2.184h-.867V1.273A1.274,1.274,0,0,0,13.962,0H1.273A1.274,1.274,0,0,0,0,1.273V18.7a1.274,1.274,0,0,0,1.273,1.273h.866v.908a1.274,1.274,0,0,0,1.273,1.273h.911v.662A1.274,1.274,0,0,0,5.6,24.084H18.284a1.275,1.275,0,0,0,1.274-1.273V5.393A1.275,1.275,0,0,0,18.284,4.119ZM1.273,19.022A.329.329,0,0,1,.945,18.7V1.273A.329.329,0,0,1,1.273.946H13.962a.328.328,0,0,1,.327.327V18.7a.328.328,0,0,1-.327.327H1.273ZM3.412,21.2a.328.328,0,0,1-.328-.327v-.908H13.962A1.274,1.274,0,0,0,15.234,18.7V3.13H16.1a.328.328,0,0,1,.327.327V20.876a.328.328,0,0,1-.327.327H3.412Zm15.2,1.608a.328.328,0,0,1-.328.327H5.6a.328.328,0,0,1-.327-.327v-.662H16.1a1.274,1.274,0,0,0,1.272-1.273V5.065h.911a.328.328,0,0,1,.328.328Z" fill="#8eb1c7"/><rect x="2.952" y="3.701" width="8.432" height="0.946" fill="#8eb1c7"/><rect x="2.952" y="6.932" width="8.432" height="0.946" fill="#8eb1c7"/><rect x="2.952" y="10.163" width="8.432" height="0.946" fill="#8eb1c7"/><rect x="2.952" y="13.393" width="8.432" height="0.946" fill="#8eb1c7"/></g></g></svg>