<svg xmlns="http://www.w3.org/2000/svg" xmlns:xlink="http://www.w3.org/1999/xlink" width="183.547" height="37.972" viewBox="0 0 183.547 37.972"><defs><style>.a{fill:#011627;}.b{clip-path:url(#a);}</style><clipPath id="a"><rect class="a" width="183.547" height="37.972" transform="translate(0 0)"/></clipPath></defs><g class="b"><path class="a" d="M277.6,5.09a8.426,8.426,0,0,0-5.944,2.292V0h-2.721V22.136h2.721V10.462A6.987,6.987,0,0,1,277.1,7.6c2.937,0,4.906,1.791,4.906,5.156v9.382h2.722V12.61c0-4.691-2.9-7.52-7.126-7.52" transform="translate(-180.381 -0.001)"/><path class="a" d="M518.134,5.09a8.426,8.426,0,0,0-5.944,2.292V0h-2.721V22.136h2.721V10.462A6.987,6.987,0,0,1,517.633,7.6c2.936,0,4.905,1.791,4.905,5.156v9.382h2.722V12.61c0-4.691-2.9-7.52-7.127-7.52" transform="translate(-341.713 -0.001)"/><path class="a" d="M10.242,91.543v7.641h1.233V93.613l4.334,5.571h.743V91.531H15.319V96.68l-4.06-5.138Z" transform="translate(-6.869 -61.392)"/><path class="a" d="M15.319,96.679V91.53h1.233v7.653h-.743l-4.334-5.571v5.571H10.242V91.541h1.017Z" transform="translate(-6.869 -61.391)"/><path class="a" d="M37.376,95.12a3.928,3.928,0,1,0,7.856-.013,4.117,4.117,0,0,0-1.126-2.938,3.994,3.994,0,0,0-6.729,2.951m6.645.014a2.719,2.719,0,1,1-5.435.012,3.052,3.052,0,0,1,.8-2.21,2.611,2.611,0,0,1,1.924-.753,2.564,2.564,0,0,1,1.906.739,3.076,3.076,0,0,1,.806,2.213" transform="translate(-25.069 -61.093)"/><path class="a" d="M73.927,96.387a2.225,2.225,0,0,0,1.894-2.357A2.476,2.476,0,0,0,73.1,91.542q-.938,0-1.878-.006-.875,0-1.75-.006v7.653H70.71v-2.64h1.619l2.3,2.64h1.519l-2.441-2.751Zm-3.217-.931V92.673h2.4a1.395,1.395,0,1,1,0,2.784Z" transform="translate(-46.6 -61.391)"/><path class="a" d="M73.709,96.432l.218-.044a2.225,2.225,0,0,0,1.894-2.357A2.476,2.476,0,0,0,73.1,91.542q-.938,0-1.878-.006-.875,0-1.75-.006v7.653H70.71v-2.64h1.619l2.3,2.64h1.519Zm-3-.975V92.673h2.4a1.395,1.395,0,1,1,0,2.784Z" transform="translate(-46.6 -61.391)"/><path class="a" d="M98.122,99.207h1.233V92.663h2.5v-1.1H95.617v1.1h2.5Z" transform="translate(-64.133 -61.415)"/><path class="a" d="M95.617,92.663v-1.1h6.242v1.1h-2.5v6.544H98.121V92.663Z" transform="translate(-64.133 -61.415)"/><path class="a" d="M123.469,91.6h-1.233v7.641h1.233V96.048h4.138v3.193h1.222V91.6h-1.222v3.329h-4.138Z" transform="translate(-81.987 -61.438)"/><path class="a" d="M127.607,94.928V91.6h1.222v7.642h-1.222V96.047h-4.138v3.193h-1.233V91.6h1.233v3.329Z" transform="translate(-81.987 -61.438)"/><path class="a" d="M152.564,91.565l-3.427,7.641h1.333l.677-1.489h4.3l.666,1.489h1.343l-3.427-7.641Zm-.933,5.021,1.662-3.811,1.662,3.811Z" transform="translate(-100.03 -61.415)"/><path class="a" d="M182.72,91.6H181.2v7.641h1.233V93.233l2.709,3.706h.164l2.765-3.686v5.988H189.3V91.6h-1.51l-2.536,3.486Z" transform="translate(-121.534 -61.438)"/><path class="a" d="M187.793,91.6h1.51v7.641H188.07V93.253l-2.765,3.686h-.164l-2.709-3.706v6.007H181.2V91.6h1.521l2.536,3.486Z" transform="translate(-121.535 -61.438)"/><path class="a" d="M216.679,91.537l-1.734.006v7.641h1.233V96.859h2.362a2.741,2.741,0,0,0,2.08-.83,2.684,2.684,0,0,0,.69-1.831,2.6,2.6,0,0,0-2.77-2.667q-.93,0-1.861.006m3.415,2.69a1.546,1.546,0,0,1-.389,1.046,1.521,1.521,0,0,1-1.165.478h-2.362V92.7h2.362a1.492,1.492,0,0,1,1.554,1.53" transform="translate(-144.169 -61.392)"/><path class="a" d="M242.629,99.207h1.233V92.663h2.5v-1.1h-6.242v1.1h2.5Z" transform="translate(-161.057 -61.415)"/><path class="a" d="M240.125,92.663v-1.1h6.242v1.1h-2.5v6.544h-1.233V92.663Z" transform="translate(-161.058 -61.415)"/><path class="a" d="M265.306,95.12a3.928,3.928,0,1,0,7.856-.013,4.119,4.119,0,0,0-1.126-2.938,3.994,3.994,0,0,0-6.73,2.951m6.645.014a2.719,2.719,0,1,1-5.435.012,3.052,3.052,0,0,1,.8-2.21,2.611,2.611,0,0,1,1.924-.753,2.564,2.564,0,0,1,1.906.739,3.076,3.076,0,0,1,.806,2.213" transform="translate(-177.947 -61.093)"/><path class="a" d="M297.545,91.543v7.641h1.233V93.613l4.334,5.571h.743V91.531h-1.233V96.68l-4.06-5.138Z" transform="translate(-199.571 -61.392)"/><path class="a" d="M302.622,96.679V91.53h1.233v7.653h-.743l-4.334-5.571v5.571h-1.233V91.541h1.017Z" transform="translate(-199.571 -61.391)"/><path class="a" d="M470.637,15.975V7.847h5.539V5.519h-5.539V0h-2.722V5.519h-3.728V7.847h3.728v8.129c0,4.333,1.97,6.589,6.051,6.589a10.347,10.347,0,0,0,2.512-.321v-2.6a8.141,8.141,0,0,1-2.26.377c-2.364,0-3.581-1.182-3.581-4.046" transform="translate(-311.342 0)"/><path class="a" d="M62.866,15.47a7.316,7.316,0,0,0-4.556,1.542v-1.1H52.726V32.53H58.31V22.082a4.171,4.171,0,0,1,3.014-1.576,3.3,3.3,0,0,1,1.645.4,11.242,11.242,0,0,1,2.925-4.838,7.641,7.641,0,0,0-3.028-.593" transform="translate(-35.365 -10.376)"/><path class="a" d="M11.408,17.495a2.289,2.289,0,0,1-2.6-2.5V10.3h5.247V5.539H8.8V0H3.255V5.539H0V10.3H3.255v4.865C3.255,19.652,6,22.6,10.517,22.6a12.3,12.3,0,0,0,3.837-.59v-5.2a8.046,8.046,0,0,1-2.946.685"/><path class="a" d="M225.184,22.15c-2.539-.665-2.871-.846-2.871-1.39S222.8,20,223.522,20a13,13,0,0,1,5.108,1.36l1.934-4.413a18.551,18.551,0,0,0-7.012-1.33c-4.322,0-7.072,1.753-7.072,5.622,0,3.325,2.419,4.624,5.652,5.38,2.69.635,2.962.847,2.962,1.36,0,.7-.846.937-1.9.937a9.872,9.872,0,0,1-5.078-1.42l-1.753,4.322a18.7,18.7,0,0,0,7.163,1.3c4.594,0,7.556-1.692,7.556-5.8,0-2.932-2.236-4.232-5.894-5.169" transform="translate(-145.117 -10.478)"/><path class="a" d="M102.536,16.772a8.251,8.251,0,0,0-9.8.67,8.859,8.859,0,0,0-3.01,6.764,9.316,9.316,0,0,0,.317,2.393,8.921,8.921,0,0,0,1.227,2.711,8.4,8.4,0,0,0,3.47,2.959,7.833,7.833,0,0,0,3.242.706,7.958,7.958,0,0,0,4.556-1.336v.891h5.55V15.916h-5.55Zm0,10a4.317,4.317,0,0,1-3.425,1.473,3.9,3.9,0,0,1-3.939-4.043,3.9,3.9,0,0,1,3.939-4.043,4.317,4.317,0,0,1,3.425,1.473Z" transform="translate(-60.18 -10.376)"/><path class="a" d="M166.058,15.47a7.316,7.316,0,0,0-4.556,1.542v-1.1h-5.584V32.53H161.5V22.082a4.171,4.171,0,0,1,3.014-1.576c1.85,0,3.049,1.062,3.049,3.425v8.6h5.549V23.041c0-4.727-2.877-7.571-7.057-7.571" transform="translate(-104.578 -10.376)"/><rect class="a" width="2.722" height="22.135" transform="translate(147.653 0)"/><g transform="translate(88.553)"><path class="a" d="M284.726,22.135H282V12.753c0-3.366-1.97-5.156-4.906-5.156a6.986,6.986,0,0,0-5.443,2.865V22.135h-2.721V0h2.721V7.381A8.426,8.426,0,0,1,277.6,5.09c4.226,0,7.127,2.829,7.127,7.52Z" transform="translate(-268.934)"/><path class="a" d="M525.259,22.135h-2.722V12.753c0-3.366-1.969-5.156-4.906-5.156a6.985,6.985,0,0,0-5.443,2.865V22.135h-2.722V0h2.722V7.381a8.425,8.425,0,0,1,5.944-2.292c4.226,0,7.126,2.829,7.126,7.52Z" transform="translate(-430.266)"/><path class="a" d="M476.477,19.645v2.6a10.355,10.355,0,0,1-2.511.32c-4.082,0-6.052-2.256-6.052-6.589V7.847h-3.729V5.519h3.729V0h2.722V5.519h5.539V7.847h-5.539v8.129c0,2.865,1.217,4.046,3.581,4.046a8.126,8.126,0,0,0,2.26-.377" transform="translate(-399.894)"/><path class="a" d="M334.6,15.457a8.4,8.4,0,0,0-8.522,8.738,8.449,8.449,0,0,0,8.665,8.738c3.581,0,6.446-1.719,7.484-4.584h-3.044c-.716,1.4-2.328,2.149-4.441,2.149a5.742,5.742,0,0,1-5.909-5.479h13.894c.537-5.443-2.793-9.561-8.129-9.561m-5.729,7.628A5.665,5.665,0,0,1,334.6,17.82a5.093,5.093,0,0,1,5.407,5.264Z" transform="translate(-307.261 -10.367)"/><path class="a" d="M385.5,24.194a8.6,8.6,0,0,0,8.558,8.737,8.413,8.413,0,0,0,5.837-2.149V32.5h2.722V15.886H399.9V17.6a8.411,8.411,0,0,0-5.837-2.149,8.621,8.621,0,0,0-8.558,8.738m14.4-3.4v6.8a6.27,6.27,0,0,1-5.479,2.829,6.231,6.231,0,0,1,0-12.461,6.27,6.27,0,0,1,5.479,2.829" transform="translate(-347.118 -10.367)"/><rect class="a" width="2.722" height="22.135" transform="translate(59.1)"/></g></g></svg>