<svg xmlns="http://www.w3.org/2000/svg" xmlns:xlink="http://www.w3.org/1999/xlink" viewBox="0 0 501.88 124.56"><defs><style>.cls-1{fill:none;}.cls-2{fill:#2a285e;}.cls-3{clip-path:url(#clip-path);}.cls-4{fill:url(#linear-gradient);}</style><clipPath id="clip-path" transform="translate(1.13 3.84)"><path class="cls-1" d="M94,29.1a2.44,2.44,0,1,0-1.89,4.49,24.17,24.17,0,0,1,14.78,22.3C106.9,68.48,96,80,84.92,80c0,0,0-52.52,0-53.32C84.88,13.26,71.06,0,55.85,0A29,29,0,0,0,29.06,17.76a2.44,2.44,0,1,0,4.49,1.89A24.17,24.17,0,0,1,55.85,4.87c12.53,0,24.08,10.31,24.08,21.79H26.64C12.47,26.66,0,40.52,0,55.73A29,29,0,0,0,17.75,82.51a2.48,2.48,0,0,0,.95.19A2.43,2.43,0,0,0,19.65,78,24.17,24.17,0,0,1,4.87,55.73c0-12.53,10.27-24.08,21.77-24.08V84.94c0,12.4,13.63,26.63,29.06,26.63A29,29,0,0,0,82.48,93.82,2.43,2.43,0,1,0,78,91.93,24.16,24.16,0,0,1,55.7,106.7c-12.52,0-24.07-10.8-24.07-21.76H84.87c13.41,0,26.89-13.77,26.89-29A29,29,0,0,0,94,29.1ZM79.93,31.53c0,9.77-11.32,21.58-21.27,21.58,0-4.88,3.07-10.53,7-14.47a2.43,2.43,0,1,0-3.41-3.46,29,29,0,0,0-6.39,9.39,29.15,29.15,0,0,0-10.76-13ZM31.5,66.43V31.65c9.69,0,21.63,11.38,21.63,21.47-4,0-10.57-3.06-14.52-7.06a2.44,2.44,0,0,0-3.47,3.42,28.92,28.92,0,0,0,9.16,6.28A29.24,29.24,0,0,0,31.5,66.43Zm.13,13.64c0-9.19,11.65-21.63,21.48-21.63,0,4.43-3,10.58-7,14.52a2.44,2.44,0,1,0,3.42,3.47A29,29,0,0,0,55.85,67a29.28,29.28,0,0,0,10.75,13Zm48.42-.13c-9.35,0-21.41-11.51-21.41-21.45,4.27,0,10.41,3.08,14.3,7A2.43,2.43,0,0,0,76.4,62.1a28.67,28.67,0,0,0-9.16-6.29A29.29,29.29,0,0,0,80.05,45.16Z"/></clipPath><linearGradient id="linear-gradient" x1="111.12" y1="12.06" x2="225.15" y2="12.06" gradientTransform="translate(-111.12 50.22)" gradientUnits="userSpaceOnUse"><stop offset="0" stop-color="#f37163"/><stop offset="1" stop-color="#ffcb58"/></linearGradient></defs><g id="Layer_2" data-name="Layer 2"><g id="Layer_1-2" data-name="Layer 1"><polygon class="cls-2" points="136.28 81.39 136.28 96.89 138.78 96.89 138.78 85.59 147.57 96.89 149.08 96.89 149.08 81.36 146.58 81.36 146.58 91.81 138.34 81.39 136.28 81.39"/><polygon class="cls-2" points="138.34 81.39 136.28 81.39 136.28 96.89 138.78 96.89 138.78 85.59 147.57 96.89 149.08 96.89 149.08 81.36 146.58 81.36 146.58 91.81 138.34 81.39"/><path class="cls-2" d="M166.93,79.42a7.84,7.84,0,0,0-5.68-2.19c-5.48,0-8,4.24-8,8.18s2.46,8,8,8,7.93-4,8-8A8.41,8.41,0,0,0,166.93,79.42Zm-5.68,11.75c-4,0-5.44-2.94-5.52-5.7A6.18,6.18,0,0,1,157.35,81a5.27,5.27,0,0,1,3.9-1.54,5.2,5.2,0,0,1,3.87,1.5,6.29,6.29,0,0,1,1.65,4.49C166.71,88.08,165.24,91.17,161.25,91.17Z" transform="translate(1.13 3.84)"/><path class="cls-2" d="M183.3,87.47l.45-.08a4.52,4.52,0,0,0,3.84-4.79c0-2.49-1.7-5-5.5-5-1.28,0-2.54,0-3.81,0h-3.55V93.05h2.49V87.7h3.29l4.67,5.35h3.08Zm-6.08-2V79.85h4.87a2.83,2.83,0,1,1,0,5.65Z" transform="translate(1.13 3.84)"/><path class="cls-2" d="M183.3,87.47l.45-.08a4.52,4.52,0,0,0,3.84-4.79c0-2.49-1.7-5-5.5-5-1.28,0-2.54,0-3.81,0h-3.55V93.05h2.49V87.7h3.29l4.67,5.35h3.08Zm-6.08-2V79.85h4.87a2.83,2.83,0,1,1,0,5.65Z" transform="translate(1.13 3.84)"/><polygon class="cls-2" points="198.41 96.89 200.91 96.89 200.91 83.61 205.99 83.61 205.99 81.39 193.32 81.39 193.32 83.61 198.41 83.61 198.41 96.89"/><polygon class="cls-2" points="198.4 83.61 198.4 96.89 200.91 96.89 200.91 83.61 205.99 83.61 205.99 81.39 193.32 81.39 193.32 83.61 198.4 83.61"/><polygon class="cls-2" points="213.61 81.41 211.11 81.41 211.11 96.92 213.61 96.92 213.61 90.44 222.01 90.44 222.01 96.92 224.49 96.92 224.49 81.41 222.01 81.41 222.01 88.16 213.61 88.16 213.61 81.41"/><polygon class="cls-2" points="213.61 88.16 213.61 81.41 211.11 81.41 211.11 96.92 213.61 96.92 213.61 90.44 222.01 90.44 222.01 96.92 224.49 96.92 224.49 81.41 222.01 81.41 222.01 88.16 213.61 88.16"/><path class="cls-2" d="M237.86,77.55h-3l-7,15.5h2.71L232,90h8.71l1.35,3h2.72ZM233,87.74,236.39,80l3.36,7.73Z" transform="translate(1.13 3.84)"/><polygon class="cls-2" points="253.59 81.41 250.5 81.41 250.5 96.92 253 96.92 253 84.72 258.5 92.24 258.84 92.24 264.45 84.76 264.45 96.92 266.95 96.92 266.95 81.41 263.88 81.41 258.74 88.48 253.59 81.41"/><polygon class="cls-2" points="258.74 88.48 253.59 81.41 250.5 81.41 250.5 96.92 253 96.92 253 84.72 258.5 92.24 258.84 92.24 264.45 84.76 264.45 96.92 266.95 96.92 266.95 81.41 263.88 81.41 258.74 88.48"/><path class="cls-2" d="M279.21,77.53h-3.77c-1.17,0-2.36,0-3.53,0v15.5h2.51V88.34h4.79a5.58,5.58,0,0,0,4.22-1.69,5.41,5.41,0,0,0,1.4-3.71A5.28,5.28,0,0,0,279.21,77.53Zm2.37,7.58a3.08,3.08,0,0,1-2.37,1h-4.79v-6.2h4.79a3,3,0,0,1,3.16,3.1A3.14,3.14,0,0,1,281.58,85.11Z" transform="translate(1.13 3.84)"/><polygon class="cls-2" points="294.96 96.89 297.46 96.89 297.46 83.61 302.54 83.61 302.54 81.39 289.88 81.39 289.88 83.61 294.96 83.61 294.96 96.89"/><polygon class="cls-2" points="294.96 83.61 294.96 96.89 297.46 96.89 297.46 83.61 302.54 83.61 302.54 81.39 289.88 81.39 289.88 83.61 294.96 83.61"/><path class="cls-2" d="M319.23,79.42a7.86,7.86,0,0,0-5.68-2.19c-5.48,0-8,4.24-8,8.18s2.48,8,8,8,7.91-4,7.95-8A8.39,8.39,0,0,0,319.23,79.42Zm-5.68,11.75c-4,0-5.46-2.94-5.52-5.7A6.1,6.1,0,0,1,309.65,81a5.73,5.73,0,0,1,7.77,0,6.28,6.28,0,0,1,1.63,4.49C319,88.08,317.54,91.17,313.55,91.17Z" transform="translate(1.13 3.84)"/><polygon class="cls-2" points="328.24 81.39 328.24 96.89 330.74 96.89 330.74 85.59 339.54 96.89 341.04 96.89 341.04 81.36 338.54 81.36 338.54 91.81 330.3 81.39 328.24 81.39"/><polygon class="cls-2" points="330.3 81.39 328.24 81.39 328.24 96.89 330.74 96.89 330.74 85.59 339.54 96.89 341.04 96.89 341.04 81.36 338.54 81.36 338.54 91.81 330.3 81.39"/><path class="cls-2" d="M325.57,26.7C334.15,26.7,340,32.44,340,42V61.28h-5.53v-19c0-6.83-4-10.47-9.95-10.47a14.19,14.19,0,0,0-11.05,5.82V61.28H308V16.37h5.52v15a17.11,17.11,0,0,1,12.06-4.65Zm160.72,0a17.12,17.12,0,0,0-12.07,4.65v-15H468.7V61.28h5.52V37.6a14.19,14.19,0,0,1,11-5.82c6,0,10,3.64,10,10.47v19h5.53V42c0-9.52-5.89-15.26-14.46-15.26ZM500.75,42c0-9.52-5.89-15.26-14.46-15.26a17.12,17.12,0,0,0-12.07,4.65v-15H468.7V61.28h5.52V37.6a14.19,14.19,0,0,1,11-5.82c6,0,10,3.64,10,10.47v19h5.53Zm-49.21,6.83V32.29h11.24V27.57H451.54V16.37H446v11.2h-7.56v4.72H446v16.5c0,8.79,4,13.37,12.28,13.37a21.06,21.06,0,0,0,5.1-.65V56.23a16.47,16.47,0,0,1-4.59.77c-4.79,0-7.26-2.4-7.26-8.21Zm11.85,7.44a16.47,16.47,0,0,1-4.59.77c-4.79,0-7.26-2.4-7.26-8.21V32.29h11.24V27.57H451.54V16.37H446v11.2h-7.56v4.72H446v16.5c0,8.79,4,13.37,12.28,13.37a21.06,21.06,0,0,0,5.1-.65V56.23ZM184.11,26.71a14.88,14.88,0,0,0-9.25,3.12V27.61H163.53V61.32h11.33V40.12c1.95-2.15,4.1-3.2,6.12-3.2a6.69,6.69,0,0,1,3.34.81,22.74,22.74,0,0,1,5.93-9.82,15.49,15.49,0,0,0-6.14-1.2ZM151.45,51.87c-3.27,0-5.28-1.6-5.28-5.08V37.27h10.65V27.61H146.17V16.37H134.91V27.61H128.3v9.66h6.61v9.87c0,9.11,5.56,15.09,14.73,15.09a25.13,25.13,0,0,0,7.79-1.2V50.48a16.42,16.42,0,0,1-6,1.39ZM290.77,40.05c-5.15-1.34-5.83-1.71-5.83-2.82s1-1.53,2.46-1.53a26.39,26.39,0,0,1,10.36,2.76l3.93-8.95a37.63,37.63,0,0,0-14.23-2.7c-8.77,0-14.35,3.56-14.35,11.41,0,6.74,4.9,9.38,11.47,10.91,5.45,1.29,6,1.72,6,2.76,0,1.41-1.72,1.9-3.87,1.9-2.94,0-7.54-.92-10.3-2.88l-3.56,8.77a37.91,37.91,0,0,0,14.54,2.64c9.32,0,15.33-3.44,15.33-11.78,0-5.95-4.54-8.58-12-10.49ZM214.24,27.61v1.74A16,16,0,0,0,205,26.71a16.22,16.22,0,0,0-10.64,4,18,18,0,0,0-6.1,13.72,18.82,18.82,0,0,0,.64,4.86,17.73,17.73,0,0,0,2.49,5.5,17,17,0,0,0,7,6A15.71,15.71,0,0,0,205,62.22a16,16,0,0,0,9.24-2.71v1.81h11.27V27.61Zm0,22a8.71,8.71,0,0,1-6.94,3,7.92,7.92,0,0,1-8-8.21,7.9,7.9,0,0,1,8-8.19,8.72,8.72,0,0,1,6.94,3Zm38.81-22.93a14.87,14.87,0,0,0-9.24,3.12V27.61H232.48V61.32h11.33V40.12c1.95-2.15,4.1-3.2,6.12-3.2,3.75,0,6.18,2.16,6.18,7V61.32h11.26V42.07c0-9.59-5.83-15.36-14.32-15.36Zm110.42,0c-10.19,0-17.31,7.79-17.31,17.74s7.21,17.72,17.59,17.72c7.27,0,13.08-3.48,15.19-9.3h-6.18c-1.45,2.84-4.72,4.36-9,4.36-7.05,0-11.34-4.86-12-11.11H380C381.05,35.05,374.29,26.69,363.47,26.69ZM351.84,42.17c.79-6,4.94-10.67,11.63-10.67,6.39,0,10.68,4,11,10.67Zm63.24-14.61v3.5a17.06,17.06,0,0,0-11.84-4.37,17.5,17.5,0,0,0-17.37,17.74,17.44,17.44,0,0,0,17.37,17.72,17.05,17.05,0,0,0,11.84-4.35v3.48h5.53V27.56Zm0,23.77A12.71,12.71,0,0,1,404,57.07a12.65,12.65,0,0,1,0-25.29,12.72,12.72,0,0,1,11.11,5.75Zm12.83,10h5.53V16.37h-5.53Zm0,0h5.53V16.37h-5.53Z" transform="translate(1.13 3.84)"/><g class="cls-3"><rect class="cls-4" width="114.03" height="124.56"/></g></g></g></svg>