<svg xmlns="http://www.w3.org/2000/svg" width="13.915" height="12.069" viewBox="0 0 13.915 12.069"><g id="Layer_2" data-name="Layer 2"><g id="Layer_1-2" data-name="Layer 1"><path d="M1.3,12.069a1.3,1.3,0,0,1-1.3-1.3V1.3A1.3,1.3,0,0,1,1.8.1L13.117,4.835a1.3,1.3,0,0,1,0,2.4L1.8,11.968A1.317,1.317,0,0,1,1.3,12.069ZM1.3,1a.308.308,0,0,0-.166.051A.3.3,0,0,0,1,1.3v9.468a.3.3,0,0,0,.134.25.293.293,0,0,0,.281.027L12.731,6.311a.3.3,0,0,0,0-.553L1.415,1.023A.3.3,0,0,0,1.3,1Z" fill="#8eb1c7"/></g></g></svg>