<svg version="1.1" id="Layer_1" xmlns="http://www.w3.org/2000/svg" xmlns:xlink="http://www.w3.org/1999/xlink" x="0px" y="0px"
	 viewBox="0 0 32.4 23.1" style="enable-background:new 0 0 32.4 23.1;" xml:space="preserve">
<style type="text/css">
	.st0{fill:#86B9D8;}
</style>
<g>
	<path class="st0" d="M31.6,0H0.8C0.4,0,0,0.4,0,0.8v21.5c0,0.3,0.2,0.6,0.5,0.7c0.1,0,0.2,0.1,0.3,0.1c0,0,0,0,0,0h30.8
		c0.4,0,0.8-0.4,0.8-0.8v0v-7.4V4.4V0.8C32.4,0.4,32,0,31.6,0z M0.8,0.8h30.8v2.8H0.8V0.8z M0.8,14.9h30.8v7.4H0.8V14.9z M0.8,14.1
		V4.4h30.8v9.7H0.8z"/>
	<path class="st0" d="M4.8,17.7h2.9c0.2,0,0.4-0.2,0.4-0.4s-0.2-0.4-0.4-0.4H4.8c-0.2,0-0.4,0.2-0.4,0.4S4.5,17.7,4.8,17.7z"/>
	<path class="st0" d="M13.6,17.3c0-0.2-0.2-0.4-0.4-0.4H8.7c-0.2,0-0.4,0.2-0.4,0.4s0.2,0.4,0.4,0.4h4.4
		C13.4,17.7,13.6,17.5,13.6,17.3z"/>
	<path class="st0" d="M14.8,17.7h2.4c0.2,0,0.4-0.2,0.4-0.4s-0.2-0.4-0.4-0.4h-2.4c-0.2,0-0.4,0.2-0.4,0.4S14.6,17.7,14.8,17.7z"/>
	<path class="st0" d="M27,16.9h-8.4c-0.2,0-0.4,0.2-0.4,0.4s0.2,0.4,0.4,0.4H27c0.2,0,0.4-0.2,0.4-0.4S27.2,16.9,27,16.9z"/>
	<path class="st0" d="M20.8,8.4h-9.3c-0.2,0-0.4,0.2-0.4,0.4s0.2,0.4,0.4,0.4h9.3c0.2,0,0.4-0.2,0.4-0.4S21.1,8.4,20.8,8.4z"/>
	<path class="st0" d="M27,19h-2.9c-0.2,0-0.4,0.2-0.4,0.4s0.2,0.4,0.4,0.4H27c0.2,0,0.4-0.2,0.4-0.4S27.2,19,27,19z"/>
	<path class="st0" d="M22.2,19h-3.7c-0.2,0-0.4,0.2-0.4,0.4s0.2,0.4,0.4,0.4h3.7c0.2,0,0.4-0.2,0.4-0.4S22.4,19,22.2,19z"/>
	<path class="st0" d="M17.4,19h-3.7c-0.2,0-0.4,0.2-0.4,0.4s0.2,0.4,0.4,0.4h3.7c0.2,0,0.4-0.2,0.4-0.4S17.6,19,17.4,19z"/>
	<path class="st0" d="M12.5,19H4.8c-0.2,0-0.4,0.2-0.4,0.4s0.2,0.4,0.4,0.4h7.8c0.2,0,0.4-0.2,0.4-0.4S12.8,19,12.5,19z"/>
	<path class="st0" d="M2.6,1.7C2.2,1.7,2,2,2,2.4S2.2,3,2.6,3C3,3,3.3,2.7,3.3,2.4S3,1.7,2.6,1.7z"/>
	<path class="st0" d="M4.8,1.7C4.4,1.7,4.1,2,4.1,2.4S4.4,3,4.8,3c0.4,0,0.7-0.3,0.7-0.7S5.1,1.7,4.8,1.7z"/>
	<path class="st0" d="M6.9,1.7C6.5,1.7,6.2,2,6.2,2.4S6.5,3,6.9,3s0.7-0.3,0.7-0.7S7.2,1.7,6.9,1.7z"/>
</g>
</svg>
