<svg xmlns="http://www.w3.org/2000/svg" width="278" height="259.583" viewBox="0 0 278 259.583"><defs><style>.a{fill:#ee6352;}.b{fill:#2d3047;}.c{fill:#fff;}.d{fill:#f6ce85;}.e,.f{fill:none;stroke-miterlimit:10;}.e{stroke:#2d3047;fill-rule:evenodd;}.f{stroke:#ffebcc;}</style></defs><g transform="translate(51.554 56.941)"><g transform="translate(-51.554 -56.941)"><path class="a" d="M429.587,491.261a58.624,58.624,0,0,0-80.528-84.949l-.015-.007a123.922,123.922,0,0,0-40.931-6.855,125.858,125.858,0,0,0-43.263,7.632l-.029.015a58.611,58.611,0,0,0-78.945,86.628l-.015.037a126.351,126.351,0,0,0,236.314,86.3A128.963,128.963,0,0,0,434.4,525.733a124.363,124.363,0,0,0-4.81-34.458Z" transform="translate(-167.511 -392.492)"/><g transform="translate(76.03 112.639)"><circle class="b" cx="22.239" cy="22.239" r="22.239"/><circle class="b" cx="22.239" cy="22.239" r="22.239" transform="translate(84.651)"/><circle class="c" cx="11.12" cy="11.12" r="11.12" transform="translate(6.77 4.35)"/><circle class="c" cx="11.12" cy="11.12" r="11.12" transform="translate(101.025 4.35)"/><circle class="d" cx="44.778" cy="44.778" r="44.778" transform="translate(21 33.767)"/><g transform="translate(25.407 48.457)"><circle class="b" cx="17.05" cy="17.05" r="17.05" transform="translate(23.321)"/><g transform="translate(0 30.379)"><path class="e" d="M181.347,430.918c11.738,11.738,39.3,10.205,39.3-12.309" transform="translate(-181.347 -418.609)"/></g><g transform="translate(40.374 30.379)"><path class="e" d="M226.143,430.918c-11.738,11.738-39.289,10.205-39.289-12.309" transform="translate(-186.854 -418.609)"/></g><circle class="c" cx="6.87" cy="6.87" r="6.87" transform="translate(34.576 3.31)"/></g></g><path class="d" d="M244.777,435.614H206.338c-5.99,0-10.843-4.545-10.843-10.154h0c0-5.608,4.853-10.154,10.843-10.154h46.188Z" transform="translate(9.667 -248.047)"/><path class="d" d="M238.41,397.885a50.678,50.678,0,0,0-63.747,68.761A126.333,126.333,0,0,1,238.41,397.885Z" transform="translate(-151.936 -378.772)"/><path class="d" d="M257.776,465.569A50.683,50.683,0,0,0,194.007,397.7,126.215,126.215,0,0,1,257.776,465.569Z" transform="translate(0.246 -378.772)"/><line class="f" y2="20.302" transform="translate(237.265 167.263)"/></g></g></svg>