<svg xmlns="http://www.w3.org/2000/svg" width="263.236" height="260" viewBox="0 0 263.236 260"><defs><style>.a{fill:#ee6352;}.b{fill:#8eb1c7;}.c{fill:none;}.d{fill:#f6ce85;}</style></defs><g transform="translate(-298.419 -457.139)"><path class="a" d="M381.969,489.41v-7.789a22.923,22.923,0,0,0-3.214-4.035A24.748,24.748,0,0,0,336.5,495.091a23.4,23.4,0,0,0,.47,4.736c-.037.041,0,.078,0,.12a12.567,12.567,0,0,0,5.013,6.027,12.742,12.742,0,0,0,9.592,1.646l.9,3.8a15.3,15.3,0,0,1-3.722.429,16.6,16.6,0,0,1-8.85-2.546,16.229,16.229,0,0,1-6.069-6.853,24.765,24.765,0,0,0-11.944,44.64,22.206,22.206,0,0,0-2.9,2.467,24.73,24.73,0,0,0,14.333,42.057,16.587,16.587,0,0,1,13.627-12.53l.59,3.874a12.681,12.681,0,0,0-10.768,12.179.074.074,0,0,1,0,.115c.037.042.037.078,0,.078v.12a24.743,24.743,0,0,0,41.975,13.627,22.628,22.628,0,0,0,3.214-3.994V586.133a18.77,18.77,0,0,0-18.718-18.718V563.5a22.662,22.662,0,0,1,18.718,9.947V534.6a18.742,18.742,0,0,0-18.718-18.714v-3.92a22.629,22.629,0,0,1,18.718,9.91V497.36a8.365,8.365,0,0,0-8.264-7.281v-3.915A12.27,12.27,0,0,1,381.969,489.41Zm-19.152,61.126a25.887,25.887,0,0,1-7.01-.978,18.911,18.911,0,0,1-18.562,15.389v-3.915a14.978,14.978,0,0,0,14.8-12.843,26.309,26.309,0,0,1-15.5-23.925h3.915a22.377,22.377,0,0,0,22.357,22.357Z" transform="translate(48.027 47.548)"/><path class="b" d="M389.355,548.267a11.867,11.867,0,0,0-13,8.458l-3.758-1.1a15.909,15.909,0,0,1,18.17-11.119,24.366,24.366,0,0,0,7.245-17.349,24.8,24.8,0,0,0-24.787-24.824,10.2,10.2,0,0,0-1.061.037.33.33,0,0,0,.041-.194,15.328,15.328,0,0,0-7.088,2.9,15.077,15.077,0,0,0-6.267,10.81l-3.915-.314a18.946,18.946,0,0,1,7.872-13.669,19.3,19.3,0,0,1,10.219-3.722,26.15,26.15,0,0,0,.2-3.09,24.731,24.731,0,0,0-42.256-17.505,25.329,25.329,0,0,0-3.168,3.878v15.9a9.99,9.99,0,0,1,.115,1.1H327.8v3.131a18.716,18.716,0,0,0,18.714,18.718v3.915a22.587,22.587,0,0,1-18.714-9.947v30.861a15.2,15.2,0,0,1,11.4-5.211v3.915a11.432,11.432,0,0,0-11.4,11.4v49.929a23.2,23.2,0,0,0,3.168,3.915,24.731,24.731,0,0,0,42.256-17.229,24.783,24.783,0,0,0,17.542-42.293C390.3,549.13,389.826,548.659,389.355,548.267Zm-17.819,24.4a10.014,10.014,0,0,0-11.939,7.48l-3.8-.862a13.713,13.713,0,0,1,6.069-8.614A18.636,18.636,0,0,0,343.3,553.2v-3.915a22.658,22.658,0,0,1,22.44,19.733,13.629,13.629,0,0,1,6.654-.194Z" transform="translate(106.111 47.548)"/><g transform="translate(377.922 541.066)"><path class="c" d="M315.724,475.338c-.046.046,0,.092,0,.138" transform="translate(-315.498 -475.338)"/><path class="c" d="M315.659,499v.36" transform="translate(-315.659 -389.896)"/></g><rect class="d" width="4.612" height="46.476" transform="translate(429.576 457.139)"/><rect class="d" width="4.609" height="46.479" transform="matrix(0.766, -0.643, 0.643, 0.766, 343.946, 488.357)"/><rect class="d" width="4.61" height="46.475" transform="translate(298.419 567.317) rotate(-80)"/><rect class="d" width="46.476" height="4.608" transform="matrix(0.866, -0.5, 0.5, 0.866, 311.994, 653.084)"/><rect class="d" width="46.473" height="4.61" transform="matrix(0.342, -0.94, 0.94, 0.342, 379.817, 714.037)"/><rect class="d" width="4.61" height="46.473" transform="translate(455.061 673.468) rotate(-20)"/><rect class="d" width="4.608" height="46.476" transform="matrix(0.5, -0.866, 0.866, 0.5, 502.522, 637.693)"/><rect class="d" width="46.477" height="4.61" transform="translate(515.085 575.248) rotate(-10.014)"/><rect class="d" width="46.474" height="4.609" transform="matrix(0.643, -0.766, 0.766, 0.643, 485.366, 523.866)"/></g></svg>