<svg xmlns="http://www.w3.org/2000/svg" width="274" height="260.15" viewBox="0 0 274 260.15"><defs><style>.a{fill:#f6ce85;}.b{fill:#ee6352;}.c{fill:#b99b64;}.d{fill:#7b6743;}.e{fill:#2d3047;}.f{fill:#f5a197;}.g{fill:#b34a3d;}</style></defs><g transform="translate(-715.712 -360.479)"><rect class="a" width="140.538" height="20.861" rx="10.431" transform="translate(785.807 412.085)"/><rect class="a" width="168.492" height="20.861" rx="10.431" transform="translate(771.83 432.912)"/><rect class="a" width="140.538" height="20.861" rx="10.431" transform="translate(785.807 599.767)"/><rect class="a" width="168.492" height="20.861" rx="10.431" transform="translate(771.83 578.94)"/><rect class="a" width="192.17" height="20.861" rx="10.431" transform="translate(759.991 453.773)"/><rect class="a" width="192.17" height="20.861" rx="10.431" transform="translate(759.991 474.634)"/><path class="a" d="M858.354,504.772a31.9,31.9,0,0,0-29.047,18.323,14.447,14.447,0,0,0-1.046,2.532H772.368a10.568,10.568,0,0,1-10.123-10.454,10.276,10.276,0,0,1,3.136-7.383,10.662,10.662,0,0,1,7.537-3.018Z" transform="translate(-2.256 -9.257)"/><path class="a" d="M959.307,515.173a10.232,10.232,0,0,1-3.081,7.383,10.711,10.711,0,0,1-7.537,3.071h-55.4a14.443,14.443,0,0,0-1.046-2.532,31.877,31.877,0,0,0-28.992-18.323h85.437A10.483,10.483,0,0,1,959.307,515.173Z" transform="translate(-7.154 -9.257)"/><path class="a" d="M827.492,545.47a13.451,13.451,0,0,0,.77,2.533H772.368a10.569,10.569,0,0,1-10.123-10.455,10.37,10.37,0,0,1,3.136-7.383,11.03,11.03,0,0,1,6.987-3.018h55.894a29.6,29.6,0,0,0-1.871,10.4A27.029,27.029,0,0,0,827.492,545.47Z" transform="translate(-2.256 -10.777)"/><path class="a" d="M960.838,537.548a10.322,10.322,0,0,1-3.081,7.383A10.708,10.708,0,0,1,950.22,548h-55.4a19.461,19.461,0,0,0,.825-2.533,29.021,29.021,0,0,0,1.046-7.922,29.624,29.624,0,0,0-1.871-10.4h55.4A10.483,10.483,0,0,1,960.838,537.548Z" transform="translate(-8.685 -10.777)"/><path class="a" d="M858.354,570.378H772.368a10.568,10.568,0,0,1-10.123-10.455,10.276,10.276,0,0,1,3.136-7.383,10.665,10.665,0,0,1,7.537-3.017h55.344a31.344,31.344,0,0,0,17.494,18.323h.441a30.289,30.289,0,0,0,6.161,1.94,33.149,33.149,0,0,0,6,.593Z" transform="translate(-2.256 -12.296)"/><path class="a" d="M959.307,559.923a10.233,10.233,0,0,1-3.081,7.384,10.711,10.711,0,0,1-7.537,3.071H863.252a33.149,33.149,0,0,0,6-.593,28.764,28.764,0,0,0,6.107-1.94h.441a31.346,31.346,0,0,0,17.494-18.323h55.4A10.483,10.483,0,0,1,959.307,559.923Z" transform="translate(-7.154 -12.296)"/><rect class="a" width="192.17" height="20.861" rx="10.431" transform="translate(759.991 558.079)"/><path class="b" d="M989.712,368.479h-274v12.243H846.462v39.363h12.5V380.721H989.712Z" transform="translate(0 -8)"/><path class="c" d="M2.542,0H120.517a2.542,2.542,0,0,1,2.542,2.542v0a0,0,0,0,1,0,0H0a0,0,0,0,1,0,0v0A2.542,2.542,0,0,1,2.542,0Z" transform="translate(793.906 430.403)"/><path class="c" d="M2.542,0H146.453A2.542,2.542,0,0,1,149,2.542v0a0,0,0,0,1,0,0H0a0,0,0,0,1,0,0v0A2.542,2.542,0,0,1,2.542,0Z" transform="translate(780.938 451.231)"/><path class="c" d="M2.542,0H120.517a2.542,2.542,0,0,1,2.542,2.542v0a0,0,0,0,1,0,0H0a0,0,0,0,1,0,0v0A2.542,2.542,0,0,1,2.542,0Z" transform="translate(793.906 597.259)"/><path class="c" d="M2.542,0H168.1a2.542,2.542,0,0,1,2.542,2.542v0a0,0,0,0,1,0,0H0a0,0,0,0,1,0,0v0A2.542,2.542,0,0,1,2.542,0Z" transform="translate(770.114 472.092)"/><path class="c" d="M2.542,0H168.1a2.542,2.542,0,0,1,2.542,2.542v0a0,0,0,0,1,0,0H0a0,0,0,0,1,0,0v0A2.542,2.542,0,0,1,2.542,0Z" transform="translate(770.114 492.953)"/><path class="c" d="M829.823,524.43a14.447,14.447,0,0,0-1.046,2.532H772.884a2.556,2.556,0,0,1,2.585-2.532Z" transform="translate(-2.772 -10.592)"/><path class="c" d="M949.4,526.962H894.768a14.447,14.447,0,0,0-1.046-2.532H946.81A2.556,2.556,0,0,1,949.4,526.962Z" transform="translate(-8.632 -10.592)"/><path class="c" d="M828.778,549.338H772.884a2.557,2.557,0,0,1,2.585-2.533h52.539A13.45,13.45,0,0,0,828.778,549.338Z" transform="translate(-2.772 -12.112)"/><path class="c" d="M949.449,549.338H894.821a19.458,19.458,0,0,0,.825-2.533h51.218A2.557,2.557,0,0,1,949.449,549.338Z" transform="translate(-8.685 -12.112)"/><path class="c" d="M858.87,571.714H772.884a2.556,2.556,0,0,1,2.585-2.532h71.243a30.289,30.289,0,0,0,6.161,1.94,33.149,33.149,0,0,0,6,.593Z" transform="translate(-2.772 -13.632)"/><path class="c" d="M947.918,571.714H863.252a33.149,33.149,0,0,0,6-.593,28.764,28.764,0,0,0,6.107-1.94h69.978A2.556,2.556,0,0,1,947.918,571.714Z" transform="translate(-7.154 -13.632)"/><path class="c" d="M2.542,0H168.1a2.542,2.542,0,0,1,2.542,2.542v0a0,0,0,0,1,0,0H0a0,0,0,0,1,0,0v0A2.542,2.542,0,0,1,2.542,0Z" transform="translate(770.114 576.398)"/><path class="d" d="M893.532,536.029a29.021,29.021,0,0,1-1.046,7.922,19.461,19.461,0,0,1-.825,2.533,31.346,31.346,0,0,1-17.494,18.323h-.441a29.413,29.413,0,0,0,16.395-18.323c.22-.808.44-1.671.605-2.533a28.476,28.476,0,0,0,.605-5.766,27.824,27.824,0,0,0-2.971-12.557,16.285,16.285,0,0,0-1.376-2.532,30.007,30.007,0,0,0-50.777,0,16.636,16.636,0,0,0-1.431,2.532,28.273,28.273,0,0,0-2.31,18.323c.166.862.385,1.725.605,2.533a29.413,29.413,0,0,0,16.394,18.323h-.441a31.344,31.344,0,0,1-17.495-18.323,13.455,13.455,0,0,1-.77-2.533,27.027,27.027,0,0,1-1.1-7.922,29.606,29.606,0,0,1,1.871-10.4,14.448,14.448,0,0,1,1.046-2.532,32.142,32.142,0,0,1,58.039,0,14.447,14.447,0,0,1,1.046,2.532A29.625,29.625,0,0,1,893.532,536.029Z" transform="translate(-5.526 -9.257)"/><path class="d" d="M856.614,571.121a27.41,27.41,0,0,1-6.6-1.94h.441A30.289,30.289,0,0,0,856.614,571.121Z" transform="translate(-6.512 -13.632)"/><path class="d" d="M876.1,569.181a27.728,27.728,0,0,1-6.547,1.94,28.764,28.764,0,0,0,6.107-1.94Z" transform="translate(-7.46 -13.632)"/><path class="e" d="M891.443,538.5a28.472,28.472,0,0,1-.605,5.766c-.166.862-.385,1.725-.605,2.533a29.413,29.413,0,0,1-16.395,18.323,28.76,28.76,0,0,1-6.107,1.94,31.412,31.412,0,0,1-11.993,0,30.285,30.285,0,0,1-6.161-1.94A29.413,29.413,0,0,1,833.183,546.8c-.22-.808-.44-1.671-.605-2.533a28.273,28.273,0,0,1,2.31-18.323,16.636,16.636,0,0,1,1.431-2.532,30.007,30.007,0,0,1,50.777,0,16.28,16.28,0,0,1,1.376,2.532A27.824,27.824,0,0,1,891.443,538.5Z" transform="translate(-5.638 -9.571)"/><rect class="f" width="274" height="4.359" transform="translate(715.712 360.479)"/><rect class="g" width="3.525" height="39.363" transform="translate(855.435 372.722)"/></g></svg>