<svg xmlns="http://www.w3.org/2000/svg" width="165.963" height="340" viewBox="0 0 165.963 340"><defs><style>.a{fill:#a5c1d2;}.b{fill:#818391;}.c{fill:#57596c;}.d{fill:#ebf7ff;}.e{fill:#ee6352;}.f{fill:#f6ce85;}</style></defs><g transform="translate(-448.49 -373.542)"><path class="a" d="M606.347,458.079V635.733a24.765,24.765,0,0,1-24.75,24.782H472.686a24.767,24.767,0,0,1-24.759-24.782V458.079A39.743,39.743,0,0,1,459.348,430.2h0a25.843,25.843,0,0,0,7.441-18.16v-16.51H587.484v16.51a25.882,25.882,0,0,0,7.442,18.16h0A39.7,39.7,0,0,1,606.347,458.079Z" transform="translate(3.343 53.027)"/><path class="b" d="M0,0H148.642a0,0,0,0,1,0,0V48.348a1.344,1.344,0,0,1-1.344,1.344H1.344A1.344,1.344,0,0,1,0,48.348V0A0,0,0,0,1,0,0Z" transform="translate(456.15 406.055)"/><path class="c" d="M1.086,0h163.79a1.086,1.086,0,0,1,1.086,1.086V26.977a0,0,0,0,1,0,0H0a0,0,0,0,1,0,0V1.086A1.086,1.086,0,0,1,1.086,0Z" transform="translate(448.49 373.542)"/><rect class="d" width="158.428" height="175.393" transform="translate(451.257 509.168)"/><rect class="e" width="116.644" height="16.726" transform="translate(472.434 541.476)"/><rect class="e" width="116.644" height="16.726" transform="translate(472.434 561.521)"/><rect class="f" width="116.644" height="16.726" transform="translate(472.434 625.555)"/><rect class="f" width="116.644" height="16.726" transform="translate(472.434 646.092)"/></g></svg>