<svg xmlns="http://www.w3.org/2000/svg" width="274" height="286" viewBox="0 0 274 286"><defs><style>.a{fill:#ee6352;}.b{fill:#8eb1c7;}.c{fill:#2d3047;}.d{fill:#c3ddea;}</style></defs><g transform="translate(-56.548 -54.145)"><path class="a" d="M199.332,403a68.322,68.322,0,0,1-47.123,38.481,9.372,9.372,0,0,0-7.382,9.111v8.172H129.26V450.6a9.378,9.378,0,0,0-7.389-9.111A68.481,68.481,0,0,1,74.706,403H86.629a57.879,57.879,0,0,0,100.83,0Z" transform="translate(-12.018 -251.961)"/><path class="b" d="M84.36,448.263a57.086,57.086,0,0,0,7.531,28.466H79.925A68.492,68.492,0,0,1,73.846,448.5V390.954H84.36Z" transform="translate(-17.297 -325.844)"/><path class="b" d="M108.541,390.954V448.5a67.958,67.958,0,0,1-6.122,28.231H90.546a57.154,57.154,0,0,0,7.524-28.466V390.954Z" transform="translate(85.063 -325.844)"/><rect class="b" width="23.747" height="10.938" transform="translate(56.548 54.145)"/><rect class="b" width="23.7" height="10.938" transform="translate(169.9 54.145)"/><path class="c" d="M175.369,543.928c-92.651,0-92.651-133.089-92.651-133.089H93.559s-5.559,123.5,83.07,123.5c96.018,0,91.669-123.5,91.669-123.5h8.791S280.847,543.928,175.369,543.928Z" transform="translate(37.302 -203.782)"/><path class="b" d="M116.066,409.056a61.106,61.106,0,0,1-7.759-.47v16.03h15.56v-16.03A61.3,61.3,0,0,1,116.066,409.056Z" transform="translate(193.923 -217.773)"/><rect class="b" width="13.229" height="10.938" transform="translate(67.082 54.145)"/><rect class="b" width="13.229" height="10.938" transform="translate(169.892 54.145)"/><rect class="b" width="23.747" height="10.938" transform="translate(56.548 54.145)"/><rect class="b" width="23.7" height="10.938" transform="translate(169.9 54.145)"/><circle class="b" cx="20.518" cy="20.518" r="20.518" transform="translate(289.512 151.053)"/><circle class="d" cx="8.201" cy="8.201" r="8.201" transform="translate(301.81 163.375)"/></g></svg>